<?xml version="1.0" encoding="UTF-8"?>
<svg xmlns="http://www.w3.org/2000/svg">
    <symbol id="icon-send" viewBox="0 0 24 24">
        <path d="M22 2L11 13M22 2l-7 20-4-9-9-4 20-7z"></path>
    </symbol>
    <symbol id="icon-phone" viewBox="0 0 32 32">
        <path
            d="M28 22c-1.1 0-2.16-.17-3.16-.48-.3-.1-.64-.04-.88.2l-3.5 3.5c-4.88-2.6-8.89-6.61-11.5-11.5l3.5-3.5c.24-.24.3-.58.2-.88C10.17 6.16 10 5.1 10 4c0-.55-.45-1-1-1H4c-.55 0-1 .45-1 1 0 14.36 11.64 26 26 26 .55 0 1-.45 1-1v-5c0-.55-.45-1-1-1z">
        </path>
    </symbol>
    <symbol id="icon-close" viewBox="0 0 20 20">
        <path
            d="M10 8.586l7.071-7.071 1.414 1.414-7.071 7.071 7.071 7.071-1.414 1.414-7.071-7.071-7.071 7.071-1.414-1.414 7.071-7.071-7.071-7.071 1.414-1.414 7.071 7.071z">
        </path>
    </symbol>
    <symbol id="icon-person" viewBox="0 0 24 24">
        <path
            d="M12 12c2.21 0 4-1.79 4-4s-1.79-4-4-4-4 1.79-4 4 1.79 4 4 4zm0 2c-2.67 0-8 1.34-8 4v2h16v-2c0-2.66-5.33-4-8-4z">
        </path>
    </symbol>
    <symbol id="icon-email" viewBox="0 0 24 24">
        <path
            d="M20 4H4c-1.1 0-1.99.9-1.99 2L2 18c0 1.1.9 2 2 2h16c1.1 0 2-.9 2-2V6c0-1.1-.9-2-2-2zm0 4l-8 5-8-5V6l8 5 8-5v2z">
        </path>
    </symbol>
</svg>